<svg width="1440" height="779" viewBox="0 0 1440 779" fill="none" xmlns="http://www.w3.org/2000/svg">
<g id="Desktop - 8" clip-path="url(#clip0_13_23)">
<g id="O&#194;&#178; = O.O">
<path d="M290.46 380.909C290.46 404.702 285.95 424.943 276.93 441.634C267.982 458.324 255.766 471.072 240.283 479.879C224.871 488.615 207.541 492.983 188.294 492.983C168.905 492.983 151.504 488.58 136.092 479.773C120.68 470.966 108.5 458.217 99.5511 441.527C90.6023 424.837 86.1278 404.631 86.1278 380.909C86.1278 357.116 90.6023 336.875 99.5511 320.185C108.5 303.494 120.68 290.781 136.092 282.045C151.504 273.239 168.905 268.835 188.294 268.835C207.541 268.835 224.871 273.239 240.283 282.045C255.766 290.781 267.982 303.494 276.93 320.185C285.95 336.875 290.46 357.116 290.46 380.909ZM243.692 380.909C243.692 365.497 241.384 352.5 236.767 341.918C232.222 331.335 225.794 323.31 217.484 317.841C209.175 312.372 199.445 309.638 188.294 309.638C177.143 309.638 167.413 312.372 159.104 317.841C150.794 323.31 144.331 331.335 139.714 341.918C135.169 352.5 132.896 365.497 132.896 380.909C132.896 396.321 135.169 409.318 139.714 419.901C144.331 430.483 150.794 438.509 159.104 443.977C167.413 449.446 177.143 452.18 188.294 452.18C199.445 452.18 209.175 449.446 217.484 443.977C225.794 438.509 232.222 430.483 236.767 419.901C241.384 409.318 243.692 396.321 243.692 380.909ZM995.05 380.909C995.05 404.702 990.54 424.943 981.52 441.634C972.571 458.324 960.355 471.072 944.873 479.879C929.461 488.615 912.131 492.983 892.884 492.983C873.495 492.983 856.094 488.58 840.682 479.773C825.27 470.966 813.09 458.217 804.141 441.527C795.192 424.837 790.718 404.631 790.718 380.909C790.718 357.116 795.192 336.875 804.141 320.185C813.09 303.494 825.27 290.781 840.682 282.045C856.094 273.239 873.495 268.835 892.884 268.835C912.131 268.835 929.461 273.239 944.873 282.045C960.355 290.781 972.571 303.494 981.52 320.185C990.54 336.875 995.05 357.116 995.05 380.909ZM948.282 380.909C948.282 365.497 945.973 352.5 941.357 341.918C936.811 331.335 930.384 323.31 922.074 317.841C913.765 312.372 904.034 309.638 892.884 309.638C881.733 309.638 872.003 312.372 863.694 317.841C855.384 323.31 848.921 331.335 844.304 341.918C839.759 352.5 837.486 365.497 837.486 380.909C837.486 396.321 839.759 409.318 844.304 419.901C848.921 430.483 855.384 438.509 863.694 443.977C872.003 449.446 881.733 452.18 892.884 452.18C904.034 452.18 913.765 449.446 922.074 443.977C930.384 438.509 936.811 430.483 941.357 419.901C945.973 409.318 948.282 396.321 948.282 380.909ZM1319.07 380.909C1319.07 404.702 1314.56 424.943 1305.54 441.634C1296.59 458.324 1284.38 471.072 1268.9 479.879C1253.48 488.615 1236.15 492.983 1216.91 492.983C1197.52 492.983 1180.12 488.58 1164.71 479.773C1149.29 470.966 1137.11 458.217 1128.16 441.527C1119.22 424.837 1114.74 404.631 1114.74 380.909C1114.74 357.116 1119.22 336.875 1128.16 320.185C1137.11 303.494 1149.29 290.781 1164.71 282.045C1180.12 273.239 1197.52 268.835 1216.91 268.835C1236.15 268.835 1253.48 273.239 1268.9 282.045C1284.38 290.781 1296.59 303.494 1305.54 320.185C1314.56 336.875 1319.07 357.116 1319.07 380.909ZM1272.31 380.909C1272.31 365.497 1270 352.5 1265.38 341.918C1260.83 331.335 1254.41 323.31 1246.1 317.841C1237.79 312.372 1228.06 309.638 1216.91 309.638C1205.76 309.638 1196.03 312.372 1187.72 317.841C1179.41 323.31 1172.94 331.335 1168.33 341.918C1163.78 352.5 1161.51 365.497 1161.51 380.909C1161.51 396.321 1163.78 409.318 1168.33 419.901C1172.94 430.483 1179.41 438.509 1187.72 443.977C1196.03 449.446 1205.76 452.18 1216.91 452.18C1228.06 452.18 1237.79 449.446 1246.1 443.977C1254.41 438.509 1260.83 430.483 1265.38 419.901C1270 409.318 1272.31 396.321 1272.31 380.909Z" fill="#CD5FF8"/>
<path d="M530.588 386.236V348.416H677.712V386.236H530.588ZM530.588 456.974V419.155H677.712V456.974H530.588ZM1054.9 492.77C1047.86 492.77 1041.83 490.284 1036.78 485.312C1031.81 480.27 1029.33 474.233 1029.33 467.202C1029.33 460.241 1031.81 454.276 1036.78 449.304C1041.83 444.332 1047.86 441.847 1054.9 441.847C1061.71 441.847 1067.68 444.332 1072.79 449.304C1077.91 454.276 1080.46 460.241 1080.46 467.202C1080.46 471.889 1079.26 476.186 1076.84 480.092C1074.5 483.928 1071.41 487.017 1067.57 489.361C1063.74 491.634 1059.51 492.77 1054.9 492.77Z" fill="#94539F"/>
</g>
<g id="Group 1">
<path id=")" d="M1243.35 654.291C1225.48 667.249 1207.31 676.769 1188.83 682.851C1170.4 688.981 1151.22 691.772 1131.3 691.224L1110.09 661.971C1117.55 662.269 1125.87 661.54 1135.04 659.782C1144.22 658.025 1153.73 655.409 1163.57 651.933C1173.45 648.423 1183.24 644.178 1192.93 639.197C1202.63 634.216 1211.74 628.634 1220.27 622.45C1231.62 614.217 1242.22 604.74 1252.07 594.019C1262 583.312 1270.44 572.368 1277.39 561.187C1284.43 550.018 1289.3 539.65 1292.01 530.081L1313.22 559.334C1307.55 578.433 1298.93 595.791 1287.38 611.408C1275.85 627.073 1261.18 641.368 1243.35 654.291Z" fill="#CD5FF8"/>
</g>
<g id="O&#194;&#178; ">
<path d="M318.772 342.909V319.365L370.654 277.923C374.631 274.656 378.076 271.709 380.988 269.081C383.9 266.453 386.172 263.79 387.806 261.091C389.439 258.392 390.256 255.409 390.256 252.142C390.256 247.028 388.161 243.087 383.971 240.317C379.78 237.547 374.702 236.162 368.736 236.162C362.344 236.162 357.195 237.724 353.289 240.849C349.453 243.903 347.536 248.342 347.536 254.166H316.108C316.108 240.53 321.08 229.841 331.023 222.099C340.966 214.287 353.679 210.381 369.162 210.381C379.745 210.381 388.942 212.227 396.755 215.92C404.567 219.543 410.604 224.479 414.865 230.729C419.198 236.979 421.364 243.974 421.364 251.716C421.364 257.966 420.05 263.79 417.422 269.188C414.865 274.514 410.888 279.77 405.49 284.955C400.164 290.068 393.275 295.43 384.823 301.041L365.86 315.104V316.276H422.855V342.909H318.772Z" fill="#CD5FF8"/>
</g>
</g>
<defs>
<clipPath id="clip0_13_23">
<rect width="1440" height="779" fill="white"/>
</clipPath>
</defs>
</svg>
